<?xml version="1.0" encoding="UTF-8" standalone="no"?>
<!-- Created with Inkscape (http://www.inkscape.org/) -->

<svg
   xmlns:dc="http://purl.org/dc/elements/1.1/"
   xmlns:cc="http://creativecommons.org/ns#"
   xmlns:rdf="http://www.w3.org/1999/02/22-rdf-syntax-ns#"
   xmlns:svg="http://www.w3.org/2000/svg"
   xmlns="http://www.w3.org/2000/svg"
   xmlns:sodipodi="http://sodipodi.sourceforge.net/DTD/sodipodi-0.dtd"
   xmlns:inkscape="http://www.inkscape.org/namespaces/inkscape"
   width="800"
   height="400"
   id="svg4152"
   version="1.1"
   inkscape:version="0.91 r"
   viewBox="0 0 800 400"
   sodipodi:docname="OVH.svg">
  <defs
     id="defs4154">
    <clipPath
       id="clipPath16">
      <path
         id="path18"
         inkscape:connector-curvature="0"
         d="m 0,283.46 444.793,0 L 444.793,0 0,0 0,283.46 Z" />
    </clipPath>
  </defs>
  <sodipodi:namedview
     id="base"
     pagecolor="#ffffff"
     bordercolor="#666666"
     borderopacity="1.0"
     inkscape:pageopacity="0.0"
     inkscape:pageshadow="2"
     inkscape:zoom="1.2"
     inkscape:cx="430.44795"
     inkscape:cy="186.23488"
     inkscape:current-layer="svg4152"
     inkscape:document-units="px"
     showgrid="true"
     inkscape:window-width="1600"
     inkscape:window-height="873"
     inkscape:window-x="0"
     inkscape:window-y="0"
     inkscape:window-maximized="1">
    <inkscape:grid
       type="xygrid"
       id="grid4700" />
  </sodipodi:namedview>
  <metadata
     id="metadata4157">
    <rdf:RDF>
      <cc:Work
         rdf:about="">
        <dc:format>image/svg+xml</dc:format>
        <dc:type
           rdf:resource="http://purl.org/dc/dcmitype/StillImage" />
        <dc:title></dc:title>
      </cc:Work>
    </rdf:RDF>
  </metadata>
  <g
     id="layer1"
     inkscape:label="Layer 1"
     inkscape:groupmode="layer"
     transform="translate(0,-200)" />
  <g
     id="g14"
     clip-path="url(#clipPath16)"
     transform="matrix(1.9573269,0,0,-1.9573269,-37.130795,417.32299)">
    <g
       id="g20"
       transform="translate(271.6088,194.2935)">
      <path
         style="fill:#264670;fill-opacity:1;fill-rule:nonzero;stroke:none"
         id="path22"
         inkscape:connector-curvature="0"
         d="m 0,0 -11.769,-20.452 -12.361,0 -14.588,-25.314 12.382,0 -9.365,-16.261 30.413,0 C 2.486,-52.525 7.155,-40.382 7.155,-27.148 7.155,-17.274 4.546,-8.016 0,0" />
    </g>
    <g
       id="g24"
       transform="translate(211.3757,132.2666)">
      <path
         style="fill:#264670;fill-opacity:1;fill-rule:nonzero;stroke:none"
         id="path26"
         inkscape:connector-curvature="0"
         d="m 0,0 0,0 0.03,0 -0.015,0.027 37.79,65.633 -31.969,0 -21.795,-37.878 -19.727,34.276 c -4.557,-8.022 -7.173,-17.292 -7.173,-27.179 0,-13.235 4.668,-25.377 12.443,-34.879 L 0,0 Z" />
    </g>
    <g
       id="g28"
       transform="translate(122.9767,87.7491)">
      <path
         style="fill:#264670;fill-opacity:1;fill-rule:nonzero;stroke:none"
         id="path30"
         inkscape:connector-curvature="0"
         d="m 0,0 c 0,-10.896 4.973,-16.093 13.522,-16.093 8.55,0 13.523,5.197 13.523,16.093 0,10.952 -4.973,16.148 -13.523,16.148 C 4.973,16.148 0,10.952 0,0 m -3.912,0 c 0,13.243 6.594,19.613 17.434,19.613 10.841,0 17.434,-6.37 17.434,-19.613 0,-13.131 -6.593,-19.557 -17.434,-19.557 -10.84,0 -17.434,6.426 -17.434,19.557" />
    </g>
    <g
       id="g32"
       transform="translate(183.8268,105.7979)">
      <path
         style="fill:#264670;fill-opacity:1;fill-rule:nonzero;stroke:none"
         id="path34"
         inkscape:connector-curvature="0"
         d="m 0,0 c 0.167,0.447 0.727,1.229 1.788,1.229 1.062,0 1.9,-0.838 1.9,-1.9 0,-0.335 -0.112,-0.67 -0.168,-0.838 L -9.555,-35.985 c -0.279,-0.783 -1.062,-1.286 -1.788,-1.286 -0.727,0 -1.509,0.503 -1.788,1.286 l -13.076,34.476 c -0.056,0.168 -0.168,0.503 -0.168,0.838 0,1.062 0.839,1.9 1.9,1.9 1.062,0 1.621,-0.782 1.788,-1.229 L -11.343,-30.062 0,0 Z" />
    </g>
    <g
       id="g36"
       transform="translate(196.8454,86.5196)">
      <path
         style="fill:#264670;fill-opacity:1;fill-rule:nonzero;stroke:none"
         id="path38"
         inkscape:connector-curvature="0"
         d="m 0,0 0,-16.093 c 0,-1.005 -0.838,-1.899 -1.9,-1.899 -1.061,0 -1.9,0.894 -1.9,1.899 l 0,34.7 c 0,1.006 0.839,1.901 1.9,1.901 1.062,0 1.9,-0.895 1.9,-1.901 l 0,-15.142 19.445,0 0,15.142 c 0,1.006 0.839,1.901 1.9,1.901 1.062,0 1.9,-0.895 1.9,-1.901 l 0,-34.7 c 0,-1.005 -0.838,-1.899 -1.9,-1.899 -1.061,0 -1.9,0.894 -1.9,1.899 L 19.445,0 0,0 Z" />
    </g>
    <g
       id="g40"
       transform="translate(226.404,71.1534)">
      <path
         style="fill:#8a8a89;fill-opacity:1;fill-rule:nonzero;stroke:none"
         id="path42"
         inkscape:connector-curvature="0"
         d="M 0,0 C 0,1.845 1.006,2.683 2.626,2.683 4.247,2.683 5.253,1.845 5.253,0 5.253,-1.844 4.247,-2.626 2.626,-2.626 1.006,-2.626 0,-1.844 0,0" />
    </g>
    <g
       id="g44"
       transform="translate(246.9665,95.125)">
      <path
         style="fill:#8a8a89;fill-opacity:1;fill-rule:nonzero;stroke:none"
         id="path46"
         inkscape:connector-curvature="0"
         d="m 0,0 c 4.973,0 7.711,-2.626 8.604,-3.855 0.28,-0.391 0.392,-0.671 0.392,-1.062 0,-0.95 -0.726,-1.62 -1.62,-1.62 -0.56,0 -0.95,0.223 -1.342,0.67 -0.838,0.95 -2.346,2.626 -6.034,2.626 -5.141,0 -7.879,-3.296 -7.879,-10.169 0,-6.986 2.738,-10.226 7.879,-10.226 3.24,0 5.196,1.452 6.481,2.403 0.392,0.279 0.671,0.391 1.062,0.391 0.895,0 1.621,-0.726 1.621,-1.621 0,-0.503 -0.168,-0.893 -0.726,-1.396 -1.23,-1.006 -3.913,-3.018 -8.438,-3.018 -7.208,0 -11.511,4.303 -11.511,13.467 C -11.511,-4.246 -7.208,0 0,0" />
    </g>
    <g
       id="g48"
       transform="translate(279.9333,81.7149)">
      <path
         style="fill:#8a8a89;fill-opacity:1;fill-rule:nonzero;stroke:none"
         id="path50"
         inkscape:connector-curvature="0"
         d="m 0,0 c 0,7.04 -2.961,10.169 -8.102,10.169 -5.141,0 -8.102,-3.129 -8.102,-10.169 0,-7.152 2.961,-10.226 8.102,-10.226 C -2.961,-10.226 0,-7.152 0,0 m 3.633,0 c 0,-9.164 -4.471,-13.467 -11.735,-13.467 -7.209,0 -11.734,4.303 -11.734,13.467 0,9.164 4.525,13.41 11.734,13.41 C -0.838,13.41 3.633,9.164 3.633,0" />
    </g>
    <g
       id="g52"
       transform="translate(327.5963,85.2344)">
      <path
         style="fill:#8a8a89;fill-opacity:1;fill-rule:nonzero;stroke:none"
         id="path54"
         inkscape:connector-curvature="0"
         d="m 0,0 0,-14.919 c 0,-1.006 -0.782,-1.788 -1.788,-1.788 -1.006,0 -1.788,0.782 -1.788,1.788 l 0,14.193 c 0,4.414 -1.565,7.432 -6.986,7.432 -4.804,0 -6.984,-2.57 -6.984,-6.706 l 0,-14.919 c 0,-1.006 -0.782,-1.788 -1.788,-1.788 -1.006,0 -1.788,0.782 -1.788,1.788 l 0,14.193 c 0,4.414 -1.397,7.432 -6.873,7.432 -5.196,0 -6.873,-3.13 -6.873,-7.823 l 0,-13.802 c 0,-1.006 -0.782,-1.788 -1.788,-1.788 -1.006,0 -1.788,0.782 -1.788,1.788 l 0,22.687 c 0,1.005 0.782,1.788 1.788,1.788 1.006,0 1.788,-0.783 1.788,-1.788 l 0,-1.789 c 0.95,2.068 3.632,3.912 7.264,3.912 4.583,0 7.543,-1.676 8.884,-3.912 1.398,2.179 3.857,3.912 8.158,3.912 C -1.956,9.891 0,4.75 0,0" />
    </g>
  </g>
  <flowRoot
     xml:space="preserve"
     id="flowRoot5141"
     style="font-style:normal;font-variant:normal;font-weight:normal;font-stretch:normal;font-size:25px;line-height:125%;font-family:Sans;-inkscape-font-specification:'Sans, Normal';text-align:start;letter-spacing:0px;word-spacing:0px;writing-mode:lr-tb;text-anchor:start;fill:#000000;fill-opacity:1;stroke:none;stroke-width:1px;stroke-linecap:butt;stroke-linejoin:miter;stroke-opacity:1"
     transform="translate(0,-200)"><flowRegion
       id="flowRegion5143"><rect
         id="rect5145"
         width="290"
         height="130"
         x="330"
         y="200" /></flowRegion><flowPara
       id="flowPara5147"></flowPara></flowRoot></svg>
