<?xml version="1.0" encoding="UTF-8" standalone="no"?>
<svg
   xmlns:dc="http://purl.org/dc/elements/1.1/"
   xmlns:cc="http://creativecommons.org/ns#"
   xmlns:rdf="http://www.w3.org/1999/02/22-rdf-syntax-ns#"
   xmlns:svg="http://www.w3.org/2000/svg"
   xmlns="http://www.w3.org/2000/svg"
   xmlns:sodipodi="http://sodipodi.sourceforge.net/DTD/sodipodi-0.dtd"
   xmlns:inkscape="http://www.inkscape.org/namespaces/inkscape"
   height="500"
   width="640"
   version="1.1"
   id="svg4216"
   inkscape:version="0.91 r"
   sodipodi:docname="AmdahlsLaw.svg">
  <metadata
     id="metadata4376">
    <rdf:RDF>
      <cc:Work
         rdf:about="">
        <dc:format>image/svg+xml</dc:format>
        <dc:type
           rdf:resource="http://purl.org/dc/dcmitype/StillImage" />
      </cc:Work>
    </rdf:RDF>
  </metadata>
  <defs
     id="defs4374" />
  <sodipodi:namedview
     pagecolor="#ffffff"
     bordercolor="#666666"
     borderopacity="1"
     objecttolerance="10"
     gridtolerance="10"
     guidetolerance="10"
     inkscape:pageopacity="0"
     inkscape:pageshadow="2"
     inkscape:window-width="1600"
     inkscape:window-height="873"
     id="namedview4372"
     showgrid="false"
     inkscape:zoom="1.3350176"
     inkscape:cx="274.24568"
     inkscape:cy="250"
     inkscape:window-x="0"
     inkscape:window-y="0"
     inkscape:window-maximized="1"
     inkscape:current-layer="svg4216" />
  <rect
     height="500"
     width="640"
     stroke="none"
     fill="#FFF"
     id="rect4218" />
  <line
     y2="48"
     x2="580"
     stroke="#000"
     y1="48"
     x1="73"
     id="line4220" />
  <line
     y2="85"
     x2="580"
     stroke="#000"
     y1="85"
     x1="73"
     id="line4222" />
  <line
     y2="122"
     x2="580"
     stroke="#000"
     y1="122"
     x1="73"
     id="line4224" />
  <line
     y2="159"
     x2="580"
     stroke="#000"
     y1="159"
     x1="73"
     id="line4226" />
  <line
     y2="196"
     x2="580"
     stroke="#000"
     y1="196"
     x1="73"
     id="line4228" />
  <line
     y2="233"
     x2="580"
     stroke="#000"
     y1="233"
     x1="73"
     id="line4230" />
  <line
     y2="270"
     x2="580"
     stroke="#000"
     y1="270"
     x1="73"
     id="line4232" />
  <line
     y2="307"
     x2="580"
     stroke="#000"
     y1="307"
     x1="73"
     id="line4234" />
  <line
     y2="344"
     x2="580"
     stroke="#000"
     y1="344"
     x1="73"
     id="line4236" />
  <line
     y2="382"
     x2="580"
     stroke="#000"
     y1="382"
     x1="73"
     id="line4238" />
  <line
     y2="419"
     x2="580"
     stroke="#000"
     y1="419"
     x1="73"
     id="line4240" />
  <line
     y2="424"
     x2="77"
     stroke="#000"
     y1="48"
     x1="77"
     id="line4242" />
  <line
     y2="424"
     x2="108"
     stroke="#000"
     y1="48"
     x1="108"
     id="line4244" />
  <line
     y2="424"
     x2="140"
     stroke="#000"
     y1="48"
     x1="140"
     id="line4246" />
  <line
     y2="424"
     x2="171"
     stroke="#000"
     y1="48"
     x1="171"
     id="line4248" />
  <line
     y2="424"
     x2="203"
     stroke="#000"
     y1="48"
     x1="203"
     id="line4250" />
  <line
     y2="424"
     x2="234"
     stroke="#000"
     y1="48"
     x1="234"
     id="line4252" />
  <line
     y2="424"
     x2="265"
     stroke="#000"
     y1="48"
     x1="265"
     id="line4254" />
  <line
     y2="424"
     x2="297"
     stroke="#000"
     y1="48"
     x1="297"
     id="line4256" />
  <line
     y2="424"
     x2="328"
     stroke="#000"
     y1="48"
     x1="328"
     id="line4258" />
  <line
     y2="424"
     x2="360"
     stroke="#000"
     y1="48"
     x1="360"
     id="line4260" />
  <line
     y2="424"
     x2="391"
     stroke="#000"
     y1="48"
     x1="391"
     id="line4262" />
  <line
     y2="424"
     x2="423"
     stroke="#000"
     y1="48"
     x1="423"
     id="line4264" />
  <line
     y2="424"
     x2="454"
     stroke="#000"
     y1="48"
     x1="454"
     id="line4266" />
  <line
     y2="424"
     x2="486"
     stroke="#000"
     y1="48"
     x1="486"
     id="line4268" />
  <line
     y2="424"
     x2="517"
     stroke="#000"
     y1="48"
     x1="517"
     id="line4270" />
  <line
     y2="424"
     x2="548"
     stroke="#000"
     y1="48"
     x1="548"
     id="line4272" />
  <line
     y2="424"
     x2="580"
     stroke="#000"
     y1="48"
     x1="580"
     id="line4274" />
  <path
     stroke="#29AAE2"
     stroke-width="2"
     d="M77,399l31-6,31.5-5,31.5-3,31.5-2s63-1,377-1"
     fill="none"
     id="path4276" />
  <path
     stroke="#ED1C24"
     stroke-width="2"
     d="M77,399l31-12,31.5-12,31.5-11.5,31.5-8,31.5-5,31.5-3,31.5-2s126-1,283.5-1.236"
     fill="none"
     id="path4278" />
  <path
     stroke="#8D5CA6"
     stroke-width="2"
     d="M77,399l31-16,31.5-23,31.5-30,31.5-32,31.5-25.48,31.5-18,31.5-10.5,31.5-6,31.5-3,31.5-1s156-1,189-1"
     fill="none"
     id="path4280" />
  <path
     stroke="#00A651"
     stroke-width="2"
     d="M580,48c-46-0-126,1-126,1l-31.5,1.5-31.5,4-31.5,6-31.5,13-31.5,21.5-31.5,37.5-31.5,53-31.5,61.5-31.5,61-31.5,46-31.5,28-31.5,17"
     fill="none"
     id="path4282" />
  <rect
     height="105"
     width="130"
     y="88"
     x="403"
     fill="#FFF"
     id="rect4284" />
  <line
     y2="122"
     x2="465"
     y1="122"
     x1="430"
     stroke="#29AAE2"
     stroke-width="2"
     id="line4286" />
  <line
     y2="140"
     x2="465"
     y1="140"
     x1="430"
     stroke="#ED1C24"
     stroke-width="2"
     id="line4288" />
  <line
     y2="158"
     x2="465"
     y1="158"
     x1="430"
     stroke="#8D5CA6"
     stroke-width="2"
     id="line4290" />
  <line
     y2="176"
     x2="465"
     y1="176"
     x1="430"
     stroke="#00A651"
     stroke-width="2"
     id="line4292" />
  <g
     font-size="13"
     font-family="Liberation Sans"
     font-weight="bold"
     id="g4294">
    <text
       id="text4296">
      <tspan
         y="53"
         x="36"
         id="tspan4298">20.00</tspan>
      <tspan
         y="90"
         x="36"
         id="tspan4300">18.00</tspan>
      <tspan
         y="127"
         x="36"
         id="tspan4302">16.00</tspan>
      <tspan
         y="164"
         x="36"
         id="tspan4304">14.00</tspan>
      <tspan
         y="201"
         x="36"
         id="tspan4306">12.00</tspan>
      <tspan
         y="238"
         x="36"
         id="tspan4308">10.00</tspan>
      <tspan
         y="275"
         x="43"
         id="tspan4310">8.00</tspan>
      <tspan
         y="312"
         x="43"
         id="tspan4312">6.00</tspan>
      <tspan
         y="349"
         x="43"
         id="tspan4314">4.00</tspan>
      <tspan
         y="386"
         x="43"
         id="tspan4316">2.00</tspan>
      <tspan
         y="423"
         x="43"
         id="tspan4318">0.00</tspan>
      <tspan
         y="27"
         x="270"
         font-size="16"
         id="tspan4320">Amdahl's Law</tspan>
      <tspan
         y="108"
         x="415"
         id="tspan4322">Parallel portion</tspan>
      <tspan
         y="480"
         x="256"
         id="tspan4324">Number of processors</tspan>
      <tspan
         y="126"
         x="475"
         id="tspan4326">50%</tspan>
      <tspan
         y="144"
         x="475"
         id="tspan4328">75%</tspan>
      <tspan
         y="162"
         x="475"
         id="tspan4330">90%</tspan>
      <tspan
         y="180"
         x="475"
         id="tspan4332">95%</tspan>
    </text>
    <text
       transform="matrix(0 -1 1 0 0 0)"
       id="text4334">
      <tspan
         y="25"
         x="-260"
         id="tspan4336">Speedup</tspan>
      <tspan
         y="81"
         x="-434"
         id="tspan4338">1</tspan>
      <tspan
         y="113"
         x="-434"
         id="tspan4340">2</tspan>
      <tspan
         y="144"
         x="-434"
         id="tspan4342">4</tspan>
      <tspan
         y="176"
         x="-434"
         id="tspan4344">8</tspan>
      <tspan
         y="207"
         x="-441"
         id="tspan4346">16</tspan>
      <tspan
         y="239"
         x="-441"
         id="tspan4348">32</tspan>
      <tspan
         y="270"
         x="-441"
         id="tspan4350">64</tspan>
      <tspan
         y="302"
         x="-448"
         id="tspan4352">128</tspan>
      <tspan
         y="333"
         x="-448"
         id="tspan4354">256</tspan>
      <tspan
         y="364"
         x="-448"
         id="tspan4356">512</tspan>
      <tspan
         y="396"
         x="-455"
         id="tspan4358">1024</tspan>
      <tspan
         y="427"
         x="-455"
         id="tspan4360">2048</tspan>
      <tspan
         y="459"
         x="-455"
         id="tspan4362">4096</tspan>
      <tspan
         y="490"
         x="-455"
         id="tspan4364">8192</tspan>
      <tspan
         y="522"
         x="-462"
         id="tspan4366">16384</tspan>
      <tspan
         y="553"
         x="-462"
         id="tspan4368">32768</tspan>
      <tspan
         y="585"
         x="-462"
         id="tspan4370">65536</tspan>
    </text>
  </g>
  <rect
     style="fill:#ffffff;fill-opacity:1;stroke:none;stroke-width:2;stroke-linejoin:round;stroke-miterlimit:4;stroke-dasharray:none;stroke-dashoffset:0;stroke-opacity:1"
     id="rect4378"
     width="138.57495"
     height="18.726345"
     x="255.42734"
     y="8.6207104" />
</svg>
